<?xml version="1.0" encoding="UTF-8"?>
<svg width="320px" height="320px" viewBox="0 0 320 320" version="1.1" xmlns="http://www.w3.org/2000/svg" xmlns:xlink="http://www.w3.org/1999/xlink">
    <title>images / ZG9093A</title>
    <g id="images-/-ZG9093A" stroke="none" stroke-width="1" fill="none" fill-rule="evenodd">
        <path d="M226.510673,94.7836822 C237.132156,88.4060826 250.405058,88.4060826 261.026541,94.7836822 C271.648024,101.161282 277.886458,112.876735 277.249442,125.249442 L277.249442,125.249442 L302.437674,125.249442 C306.734036,125.691989 310,129.311643 310,133.630738 C310,137.949832 306.734036,141.569487 302.437674,142.012033 L302.437674,142.012033 L277.249442,142.012033 L277.249442,250.924526 L302.437674,250.924526 C306.734036,251.367072 310,254.986726 310,259.305821 C310,263.624915 306.734036,267.24457 302.437674,267.687116 L302.437674,267.687116 L277.249442,267.687116 L277.249442,276.024066 C277.886458,288.396773 271.648024,300.112226 261.026541,306.489826 C250.405058,312.867426 237.132156,312.867426 226.510673,306.489826 C215.88919,300.112226 209.650756,288.396773 210.287771,276.024066 L210.287771,276.024066 L210.287771,267.687116 L193.525181,267.687116 L193.525181,276.024066 C193.525181,294.539512 178.515446,309.549247 160,309.549247 C141.484554,309.549247 126.474819,294.539512 126.474819,276.024066 L126.474819,276.024066 L126.474819,267.687116 L109.712229,267.687116 L109.712229,276.024066 C110.349244,288.396773 104.11081,300.112226 93.4893267,306.489826 C82.8678437,312.867426 69.5949425,312.867426 58.9734595,306.489826 C48.3519765,300.112226 42.1135421,288.396773 42.7505576,276.024066 L42.7505576,276.024066 L42.7505576,267.687116 L17.5623264,267.687116 C13.2659641,267.24457 10,263.624915 10,259.305821 C10,254.986726 13.2659641,251.367072 17.5623264,250.924526 L17.5623264,250.924526 L42.7505576,250.924526 L42.7505576,142.012033 L17.5623264,142.012033 C13.2659641,141.569487 10,137.949832 10,133.630738 C10,129.311643 13.2659641,125.691989 17.5623264,125.249442 L17.5623264,125.249442 L42.7505576,125.249442 C42.1135421,112.876735 48.3519765,101.161282 58.9734595,94.7836822 C69.5949425,88.4060826 82.8678437,88.4060826 93.4893267,94.7836822 C104.11081,101.161282 110.349244,112.876735 109.712229,125.249442 L109.712229,125.249442 L126.474819,125.249442 C126.474819,113.272049 132.864682,102.20448 143.237409,96.2157834 C153.610137,90.2270865 166.389863,90.2270865 176.762591,96.2157834 C187.135318,102.20448 193.525181,113.272049 193.525181,125.249442 L193.525181,125.249442 L210.287771,125.249442 C209.650756,112.876735 215.88919,101.161282 226.510673,94.7836822 Z M84.9622482,109.721631 C79.6012391,106.450602 72.861547,106.450602 67.500538,109.721631 C62.139529,112.99266 59.056638,118.985925 59.5131481,125.249442 L59.5131481,125.249442 L59.5131481,276.024066 C59.056638,282.287583 62.139529,288.280848 67.500538,291.551877 C72.861547,294.822906 79.6012391,294.822906 84.9622482,291.551877 C90.3232572,288.280848 93.4061482,282.287583 92.9496381,276.024066 L92.9496381,276.024066 L92.9496381,125.249442 C93.4061482,118.985925 90.3232572,112.99266 84.9622482,109.721631 Z M252.499462,109.721631 C247.138453,106.450602 240.398761,106.450602 235.037752,109.721631 C229.676743,112.99266 226.593852,118.985925 227.050362,125.249442 L227.050362,125.249442 L227.050362,276.024066 C226.593852,282.287583 229.676743,288.280848 235.037752,291.551877 C240.398761,294.822906 247.138453,294.822906 252.499462,291.551877 C257.860471,288.280848 260.943362,282.287583 260.486852,276.024066 L260.486852,276.024066 L260.486852,125.249442 C260.943362,118.985925 257.860471,112.99266 252.499462,109.721631 Z M160,108.486852 C150.742277,108.486852 143.23741,115.991719 143.23741,125.249442 L143.23741,125.249442 L143.23741,276.024066 C143.23741,285.281789 150.742277,292.786656 160,292.786656 C169.257723,292.786656 176.76259,285.281789 176.76259,276.024066 L176.76259,276.024066 L176.76259,125.249442 C176.76259,115.991719 169.257723,108.486852 160,108.486852 Z M126.474819,142.012033 L109.712229,142.012033 L109.712229,250.924526 L126.474819,250.924526 L126.474819,142.012033 Z M210.287771,142.012033 L193.525181,142.012033 L193.525181,250.924526 L210.287771,250.924526 L210.287771,142.012033 Z M168.381295,8.33116858 C172.70039,8.33116858 176.320044,11.5971327 176.76259,15.893495 C176.919196,26.6360428 173.485788,37.1235452 167.006585,45.6936558 C162.335988,51.4872632 159.855316,58.7408745 160,66.1812664 C160.008463,70.8790245 156.352353,74.7685036 151.66305,75.0503619 C146.938777,74.8138561 143.231493,70.9114521 143.23741,66.1812664 C143.094352,55.4407831 146.526358,44.9575633 152.993415,36.3811056 C157.691314,30.6025922 160.175511,23.3386724 160,15.893495 C160.442546,11.5971327 164.062201,8.33116858 168.381295,8.33116858 Z M84.6126883,8 C89.2170585,8 92.9496381,11.7325795 92.9496381,16.3369498 C93.1062439,27.0794975 89.6728353,37.567 83.193633,46.1371106 C78.8111778,51.8837939 76.5265399,58.9567825 76.7191933,66.1812664 C76.7191933,71.0795326 72.748364,75.0503619 67.8500978,75.0503619 C63.326836,74.7837766 59.7318546,71.1505507 59.5131481,66.6247212 C59.3700901,55.8842378 62.8020966,45.4010181 69.2691531,36.8245603 C73.9670521,31.046047 76.4512498,23.7821272 76.2757386,16.3369498 C76.2757386,11.7325795 80.0083181,8 84.6126883,8 Z M252.105557,8.33116858 C256.424651,8.33116858 260.044306,11.5971327 260.486852,15.893495 C260.643458,26.6360428 257.210049,37.1235452 250.730847,45.6936558 C246.06025,51.4872632 243.579577,58.7408745 243.724261,66.1812664 C243.732725,70.8790245 240.076614,74.7685036 235.387312,75.0503619 C230.698009,74.7685036 227.041899,70.8790245 227.050362,66.1812664 C226.907304,55.4407831 230.33931,44.9575633 236.806367,36.3811056 C241.472427,30.5902781 243.924767,23.3275785 243.724261,15.893495 C244.166808,11.5971327 247.786462,8.33116858 252.105557,8.33116858 Z" id="Combined-Shape" fill="#000000" fill-rule="nonzero"></path>
    </g>
</svg>